<?xml version="1.0" encoding="utf-8"?>
<!-- Generator: Adobe Illustrator 21.0.0, SVG Export Plug-In . SVG Version: 6.00 Build 0)  -->
<svg version="1.1" id="Layer_1" xmlns="http://www.w3.org/2000/svg" xmlns:xlink="http://www.w3.org/1999/xlink" x="0px" y="0px"
	 viewBox="0 0 40 51.2" style="enable-background:new 0 0 40 51.2;" xml:space="preserve">
<style type="text/css">
	.st0{fill:#00A2E8;}
</style>
<g>
	<g>
		<path class="st0" d="M36.1,35.7l-5.4-1.7c0-0.2,0-0.3,0-0.5c-0.1-0.5-0.5-0.9-0.9-1.2l-3.3-1.7v-2.4c2.5-1.7,4.3-4.5,4.7-7.6h0.4
			c1.5,0,2.7-1.1,2.9-2.5c0.1-0.8-0.2-1.6-0.7-2.1c-0.3-0.3-0.6-0.5-0.9-0.7V7.2c0-3.1-2.5-5.6-5.6-5.6c0,0-0.1,0-0.1,0
			c-1.4-1-3.3-1.6-5.5-1.6c-4.7,0-6.8,1-9.3,2.1c-1.3,0.6-2.7,1.2-4.7,1.8C7.4,4,7.2,4.1,7.1,4.3C7,4.5,7,4.7,7.1,4.9
			c0,0.1,0.4,0.8,1.2,1.8c-0.4,0.5-1.1,1.6-1.1,3.9v4.9c-0.9,0.4-1.5,1.2-1.6,2.2c-0.1,0.8,0.2,1.6,0.7,2.1c0.5,0.6,1.3,0.9,2,0.9
			h0.6c0.4,3.2,2.2,5.9,4.7,7.6v2.4l-3.3,1.7c-0.5,0.2-0.8,0.7-0.9,1.2c0,0.2-0.1,0.3,0,0.5l-5.4,1.7C1.6,36.5,0,38.6,0,41.1v9.4
			c0,0.4,0.3,0.8,0.8,0.8c0.4,0,0.8-0.3,0.8-0.8v-9.4c0-1.8,1.2-3.4,2.9-3.9l5.6-1.7l1,1.3l-1.1,1.1c-0.7,0.7-0.9,1.8-0.4,2.7
			l2.1,4.3h-2v-0.9c0-0.4-0.3-0.8-0.8-0.8S8,43.7,8,44.1v0.9H4.8c-0.4,0-0.8,0.3-0.8,0.8v4.8c0,0.4,0.3,0.8,0.8,0.8h8
			c0.4,0,0.8-0.3,0.8-0.8v-1.6l1,2c0.1,0.3,0.4,0.4,0.7,0.4c0.1,0,0.2,0,0.3-0.1c0.4-0.2,0.5-0.6,0.3-1L10.8,40
			c-0.2-0.3-0.1-0.7,0.2-1l1.6-1.6c0.3-0.3,0.3-0.7,0.1-1l-1.7-2.3c-0.1-0.1,0-0.2,0-0.2c0,0,0-0.1,0.1-0.2l3-1.5l2.1,7.2
			c0.1,0.4,0.5,0.6,0.9,0.5c0.4-0.1,0.6-0.5,0.5-0.9l-0.3-1.1c0.9,0.3,1.9,0.5,2.9,0.5c1,0,2-0.2,2.9-0.5L20,47.8l-1.6-5.6
			c-0.1-0.4-0.5-0.6-0.9-0.5c-0.4,0.1-0.6,0.5-0.5,0.9l2.3,8c0.1,0.3,0.4,0.5,0.7,0.5c0.3,0,0.6-0.2,0.7-0.5l5.4-18.4l3,1.5
			c0.1,0,0.1,0.1,0.1,0.2c0,0,0,0.1,0,0.2l-1.7,2.3c-0.2,0.3-0.2,0.7,0.1,1l1.6,1.6c0.3,0.3,0.3,0.7,0.2,1l-5.1,10.2
			c-0.2,0.4,0,0.8,0.3,1c0.1,0.1,0.2,0.1,0.3,0.1c0.3,0,0.5-0.2,0.7-0.4l5.1-10.2c0.5-0.9,0.3-2-0.4-2.7L29,36.8l1-1.3l5.6,1.7
			c1.7,0.5,2.9,2.1,2.9,3.9v9.4c0,0.4,0.3,0.8,0.8,0.8s0.8-0.3,0.8-0.8v-9.4C40,38.6,38.4,36.5,36.1,35.7z M12,49.7H5.5v-3.3H8v0.1
			c0,0.4,0.3,0.8,0.8,0.8s0.8-0.3,0.8-0.8v-0.1H12L12,49.7L12,49.7z M12.8,3.5c2.4-1.1,4.4-2,8.7-2c2.8,0,5.2,1.2,5.8,2.7
			c0.1,0.4,0.6,0.6,0.9,0.5c0.4-0.1,0.6-0.6,0.5-0.9c0-0.1-0.1-0.3-0.2-0.4c1.6,0.6,2.7,2.1,2.7,3.8v8.1h-0.9
			c-0.5,0-0.9-0.4-0.9-0.9v-0.8c0-3.5-2.5-6-2.6-6.1c-0.2-0.2-0.5-0.3-0.8-0.2c-4.2,1.3-10,2.4-14.4,0.2c-1.5-0.8-2.4-1.8-2.9-2.4
			C10.5,4.5,11.7,4,12.8,3.5z M24.9,31.1L23.4,36c-1.1,0.6-2.2,0.9-3.4,0.9c-1.2,0-2.4-0.3-3.4-0.9l-1.4-4.9v-1.9
			c1.5,0.7,3.1,1.1,4.9,1.1c1.7,0,3.4-0.4,4.9-1.1V31.1z M20,28.9c-5.3,0-9.7-4.3-9.7-9.7c0-0.4-0.3-0.8-0.8-0.8s-0.8,0.3-0.8,0.8
			v0.1H8.4c-0.4,0-0.7-0.2-0.9-0.4c-0.2-0.3-0.4-0.6-0.3-1c0.1-0.6,0.7-1.1,1.4-1.1h1.1c1.3,0,2.4-1.1,2.4-2.4v-2.8
			c0-0.4-0.3-0.8-0.8-0.8s-0.8,0.3-0.8,0.8v2.8c0,0.5-0.4,0.9-0.9,0.9H8.7v-4.6c0-1.7,0.5-2.6,0.7-2.9c0.5,0.4,1,0.7,1.6,1
			c1.7,0.9,3.7,1.4,6,1.5c2.7,0.1,5.8-0.4,9.1-1.4c0.6,0.7,1.9,2.5,1.9,4.8v0.8c0,1.3,1.1,2.4,2.4,2.4h1.2c0.4,0,0.7,0.2,0.9,0.4
			c0.2,0.3,0.4,0.6,0.3,1c-0.1,0.6-0.7,1.1-1.4,1.1h-0.3v0c0-0.4-0.3-0.8-0.8-0.8h0c-0.4,0-0.8,0.3-0.8,0.7
			C29.7,24.5,25.3,28.9,20,28.9z"/>
	</g>
</g>
</svg>
