<?xml version="1.0" encoding="utf-8"?>
<!-- Generator: Adobe Illustrator 21.0.0, SVG Export Plug-In . SVG Version: 6.00 Build 0)  -->
<svg version="1.1" id="Layer_1" xmlns="http://www.w3.org/2000/svg" xmlns:xlink="http://www.w3.org/1999/xlink" x="0px" y="0px"
	 viewBox="0 0 45.8 40.4" style="enable-background:new 0 0 45.8 40.4;" xml:space="preserve">
<style type="text/css">
	.st0{fill:#00A2E8;}
</style>
<g>
	<g>
		<g>
			<path class="st0" d="M38,4.6c-0.5,0-0.9,0.4-0.9,0.9s0.4,0.9,0.9,0.9c0.5,0,0.9-0.4,0.9-0.9C38.9,5,38.5,4.6,38,4.6z"/>
		</g>
	</g>
	<g>
		<g>
			<path class="st0" d="M42.7,3.7C40.5,1.3,37.6,0,34.3,0c-3.5,0-6.8,1.4-9.4,4c-0.9,0.9-1.6,1.8-2,2.5c-0.5-0.7-1.1-1.6-2-2.5
				c-2.6-2.6-5.8-4-9.4-4C4.7,0,0,5.7,0,12.4c0,9.1,9.7,16.8,22.3,27.8c0.2,0.1,0.4,0.2,0.6,0.2s0.4-0.1,0.6-0.2
				c12.7-11,22.3-18.7,22.3-27.8C45.8,9.1,44.7,6,42.7,3.7z M22.9,38.4C11,28,1.8,20.6,1.8,12.4C1.8,6.4,6,1.8,11.5,1.8
				c3.1,0,5.8,1.1,8,3.4c1.7,1.7,2.5,3.5,2.5,3.5c0.1,0.3,0.5,0.5,0.8,0.5h0c0.4,0,0.7-0.2,0.8-0.5c0,0,0.8-1.8,2.5-3.5
				c2.3-2.3,5-3.4,8-3.4c5.6,0,9.7,4.6,9.7,10.6C44.1,20.8,34.3,28.5,22.9,38.4z"/>
		</g>
	</g>
	<g>
		<g>
			<path class="st0" d="M41.1,7.8c-0.2-0.4-0.8-0.6-1.2-0.4c-0.4,0.2-0.6,0.8-0.4,1.2c0.6,1.1,0.9,2.5,0.9,3.8
				c0,2.6-1.2,5.3-3.9,8.6c-0.3,0.4-0.2,0.9,0.1,1.3c0.4,0.3,1,0.2,1.3-0.1c2.9-3.6,4.3-6.7,4.3-9.8C42.3,10.8,41.9,9.2,41.1,7.8z"
				/>
		</g>
	</g>
	<g>
		<g>
			<path class="st0" d="M31.5,17.2h-5v-5c0-0.5-0.4-0.9-0.9-0.9h-5.4c-0.5,0-0.9,0.4-0.9,0.9v5h-5c-0.5,0-0.9,0.4-0.9,0.9v5.4
				c0,0.5,0.4,0.9,0.9,0.9h5v5c0,0.5,0.4,0.9,0.9,0.9h5.4c0.5,0,0.9-0.4,0.9-0.9v-5h5c0.5,0,0.9-0.4,0.9-0.9v-5.4
				C32.4,17.6,32,17.2,31.5,17.2z M30.6,22.5h-5c-0.5,0-0.9,0.4-0.9,0.9v5h-3.6v-5c0-0.5-0.4-0.9-0.9-0.9h-5V19h5
				c0.5,0,0.9-0.4,0.9-0.9v-5h3.6v5c0,0.5,0.4,0.9,0.9,0.9h5V22.5z"/>
		</g>
	</g>
</g>
</svg>
