<?xml version="1.0" encoding="utf-8"?>
<!-- Generator: Adobe Illustrator 21.0.0, SVG Export Plug-In . SVG Version: 6.00 Build 0)  -->
<svg version="1.1" id="Layer_1" xmlns="http://www.w3.org/2000/svg" xmlns:xlink="http://www.w3.org/1999/xlink" x="0px" y="0px"
	 viewBox="0 0 43.2 43.5" style="enable-background:new 0 0 43.2 43.5;" xml:space="preserve">
<style type="text/css">
	.st0{fill:#00A2E8;}
</style>
<g>
	<g>
		<g>
			<path class="st0" d="M9.3,35.1c-0.2-0.2-0.4-0.4-0.7-0.6c3.3-3.2,6.7-7.2,6.7-12.6S12,12.5,8.7,9.3c0.2-0.2,0.4-0.4,0.7-0.6
				c2.8-2.7,5.3-5,5.3-7.7V0.3h-1.4V1c0,0.5-0.1,0.9-0.3,1.4H2.4C2.2,1.9,2.1,1.4,2.1,1V0.3H0.7V1c0,2.7,2.5,5,5.3,7.7
				c0.2,0.2,0.4,0.4,0.7,0.6C3.4,12.5,0,16.5,0,21.9s3.4,9.4,6.7,12.6c-0.2,0.2-0.4,0.4-0.7,0.6c-2.8,2.7-5.3,5-5.3,7.7v0.7h1.4
				v-0.7c0-0.5,0.1-0.9,0.3-1.4h10.5c0.2,0.5,0.3,0.9,0.3,1.4v0.7h1.4v-0.7C14.6,40.2,12.2,37.8,9.3,35.1z M3.2,3.8h8.8
				c-0.3,0.5-0.7,0.9-1.2,1.4H4.4C4,4.7,3.6,4.2,3.2,3.8z M5.8,6.6h3.7C9.1,6.9,8.8,7.3,8.4,7.6C8.1,7.9,7.9,8.1,7.7,8.3
				C7.4,8.1,7.2,7.9,7,7.6C6.6,7.3,6.2,6.9,5.8,6.6z M7.7,10.3c0.8,0.8,1.7,1.7,2.4,2.6H5.2C6,11.9,6.8,11.1,7.7,10.3z M2.5,17h6.6
				v-1.4H3.2c0.3-0.5,0.6-1,1-1.5v0.1h7v-0.1c0.3,0.5,0.7,1,1,1.5h-1.7V17h2.4c0.2,0.5,0.4,0.9,0.5,1.4H1.9
				C2.1,17.9,2.3,17.5,2.5,17z M1.6,19.8h12.2c0.1,0.5,0.1,0.9,0.2,1.4H1.4C1.5,20.7,1.5,20.3,1.6,19.8z M1.9,25.4h2.2V24H1.6
				c-0.1-0.5-0.1-0.9-0.2-1.4h12.5c0,0.5-0.1,0.9-0.2,1.4H5.6v1.4h7.8c-0.2,0.5-0.3,0.9-0.5,1.4H2.5C2.3,26.3,2.1,25.9,1.9,25.4z
				 M4.2,29.6c-0.3-0.5-0.7-1-1-1.5h8.9c-0.3,0.5-0.6,1-1,1.5v-0.1L4.2,29.6L4.2,29.6z M5.2,31h4.9c-0.8,0.9-1.6,1.8-2.4,2.6
				C6.8,32.7,6,31.9,5.2,31z M7,36.2c0.2-0.2,0.5-0.4,0.7-0.7c0.2,0.2,0.5,0.5,0.7,0.7c0.4,0.4,0.8,0.7,1.1,1.1H5.8
				C6.2,36.9,6.6,36.5,7,36.2z M3.2,40c0.3-0.5,0.7-0.9,1.2-1.4h6.5c0.4,0.5,0.9,0.9,1.2,1.4H3.2z"/>
		</g>
	</g>
	<g>
		<g>
			<path class="st0" d="M39.7,37.9h-1.1c1.6-3,2.5-6.3,2.5-9.8c0-5.6-2.4-11-6.5-14.8l1.9-1.9l-1.4-1.4l2.5-2.5l0.7,0.7l3.1-3.1
				L36.2,0l-3.1,3.1l0.7,0.7l-2.5,2.5L30,4.9l-9.8,9.8l-1.4-1.4l-3.1,3.1l9.4,9.4l3.1-3.1l-1.4-1.4l3.9-3.9c2,1.8,3.5,4.2,4.3,6.7
				c-1.2,0.3-2.2,1.4-2.2,2.7c0,1.5,1.2,2.7,2.7,2.8c-0.1,0.6-0.1,1.2-0.3,1.7c-0.5-0.2-1.1-0.3-1.8-0.3H23c-1.9,0-3.5,1.6-3.5,3.5
				v0.7h9.1c0,0.2-0.1,0.5-0.1,0.7v2.1h-9.8c-1.9,0-3.5,1.6-3.5,3.5v2.1h27.9v-2.1C43.2,39.5,41.7,37.9,39.7,37.9z M36.3,2l3.2,3.2
				l-1.1,1.1l-3.2-3.2L36.3,2z M34.9,4.8l1.8,1.8l-2.5,2.5l-1.8-1.8L34.9,4.8z M25.1,23.7l-7.4-7.4l1.1-1.1l7.4,7.4L25.1,23.7z
				 M25.8,20.2l-4.6-4.6L30,6.9l4.6,4.6L25.8,20.2z M31.7,16.3l2-2c3.9,3.6,6.1,8.6,6.1,13.8c0,2.5-0.5,4.9-1.4,7.2
				c-0.1-1.4-0.8-2.5-1.8-3.3c0.2-0.9,0.4-1.9,0.4-2.8c0.8-0.5,1.4-1.4,1.4-2.4c0-1.2-0.8-2.3-1.9-2.6C35.6,21.2,34,18.4,31.7,16.3z
				 M34.2,26.8c0-0.8,0.6-1.4,1.4-1.4s1.4,0.6,1.4,1.4c0,0.8-0.6,1.4-1.4,1.4S34.2,27.5,34.2,26.8z M21,33.8c0.3-0.8,1.1-1.4,2-1.4
				h7c-0.4,0.4-0.7,0.9-1,1.4H21z M41.8,42.1H16.7v-0.7c0-1.2,0.9-2.1,2.1-2.1h12.5v-1.4H30v-2.1c0-1.9,1.6-3.5,3.5-3.5
				s3.5,1.6,3.5,3.5v2.1h-4.2v1.4h7c1.2,0,2.1,0.9,2.1,2.1V42.1z"/>
		</g>
	</g>
</g>
</svg>
