<?xml version="1.0" encoding="utf-8"?>
<!-- Generator: Adobe Illustrator 21.0.0, SVG Export Plug-In . SVG Version: 6.00 Build 0)  -->
<svg version="1.1" id="Layer_1" xmlns="http://www.w3.org/2000/svg" xmlns:xlink="http://www.w3.org/1999/xlink" x="0px" y="0px"
	 viewBox="0 0 43.2 43.5" style="enable-background:new 0 0 43.2 43.5;" xml:space="preserve">
<style type="text/css">
	.st0{fill:#FFFFFF;}
</style>
<g>
	<path class="st0" d="M23.2,22c1.7-0.9,2.4-3,1.5-4.7s-3-2.4-4.7-1.5c-1.7,0.9-2.4,3-1.5,4.7c0.3,0.6,0.8,1.1,1.5,1.5
		c-2,0.7-3.3,2.5-3.3,4.6c0,0.4,0.3,0.7,0.7,0.7h8.4c0.4,0,0.7-0.3,0.7-0.7C26.5,24.6,25.2,22.7,23.2,22z M21.6,16.9
		c1.2,0,2.1,0.9,2.1,2.1c0,1.2-0.9,2.1-2.1,2.1c-1.2,0-2.1-0.9-2.1-2.1C19.5,17.8,20.5,16.9,21.6,16.9z M18.2,26
		c0.4-1.9,2.2-3.1,4.1-2.7c1.4,0.3,2.4,1.4,2.7,2.7H18.2z"/>
	<path class="st0" d="M36.2,29.5c-1.6,0-3.2,0.6-4.4,1.6l-3.4-3.4c1.3-1.6,2.1-3.5,2.2-5.6l7.1-0.3c0.5,1.5,2,2.3,3.5,1.8
		c1.5-0.5,2.3-2,1.8-3.5c-0.5-1.5-2-2.3-3.5-1.8c-1,0.3-1.7,1.1-1.9,2.1l-7.1,0.3c-0.3-2.7-1.8-5.1-4-6.6l1.3-2.4
		c2.2,0.8,4.6-0.4,5.3-2.6s-0.4-4.6-2.6-5.4c-2.2-0.8-4.6,0.4-5.3,2.6c-0.6,1.7,0,3.6,1.4,4.7l-1.3,2.4c-3.2-1.5-7-0.9-9.6,1.4
		l-3.4-3.4c2.4-3,2-7.4-1-9.9s-7.4-2-9.8,1s-2,7.4,1,9.9c2.6,2.1,6.3,2.1,8.8,0l3.4,3.4c-1.8,2.1-2.5,4.9-2,7.6l-6.1,1.7
		c-0.9-1.7-3-2.4-4.7-1.5c-1.7,0.9-2.4,3-1.5,4.7c0.9,1.7,3,2.4,4.7,1.5C6.3,29.2,7,28,7,26.7c0-0.1,0-0.1,0-0.2l6.1-1.7
		c0.7,2,2.1,3.7,3.9,4.8l-1.5,3c-2.6-0.9-5.3,0.5-6.2,3.1s0.5,5.4,3.1,6.2c2.6,0.9,5.3-0.5,6.2-3.1c0.7-2.1-0.1-4.3-1.8-5.6l1.5-3
		c3.1,1.3,6.7,0.7,9.3-1.5l3.4,3.4c-2.4,3-2,7.4,1,9.9s7.4,2,9.8-1c2.4-3,2-7.4-1-9.9C39.4,30,37.8,29.5,36.2,29.5z M40.4,19.7
		c0.8,0,1.4,0.6,1.4,1.4c0,0.8-0.6,1.4-1.4,1.4S39,21.8,39,21.1C39,20.3,39.6,19.7,40.4,19.7z M29.3,4.9c1.5,0,2.8,1.3,2.8,2.8
		s-1.2,2.8-2.8,2.8s-2.8-1.3-2.8-2.8S27.7,4.9,29.3,4.9z M3.5,28.8c-1.2,0-2.1-0.9-2.1-2.1c0-1.2,0.9-2.1,2.1-2.1s2.1,0.9,2.1,2.1
		C5.6,27.8,4.7,28.8,3.5,28.8z M17.4,37.2c0,1.9-1.6,3.5-3.5,3.5s-3.5-1.6-3.5-3.5c0-1.9,1.6-3.5,3.5-3.5
		C15.9,33.7,17.4,35.3,17.4,37.2z M1.4,7c0-3.1,2.5-5.6,5.6-5.6c3.1,0,5.6,2.5,5.6,5.6c0,1.4-0.5,2.7-1.4,3.8c0-0.1,0-0.2,0.1-0.2
		c0-1.1-0.4-2.2-1.2-3C9.7,7.3,9.3,7,9,6.9c1.1-1.1,1-2.9-0.1-4S6,1.9,5,3c-1,1.1-1,2.8,0,3.9C3.6,7.6,2.8,9,2.8,10.5
		c0,0.1,0,0.2,0,0.2C1.9,9.8,1.4,8.4,1.4,7z M7,6.3c-0.8,0-1.4-0.6-1.4-1.4S6.2,3.5,7,3.5s1.4,0.6,1.4,1.4S7.8,6.3,7,6.3z M7,7.7
		c1.3,0,2.4,0.9,2.7,2.1H4.3C4.6,8.6,5.7,7.7,7,7.7z M3.3,11.2c0.1,0,0.2,0,0.2,0h7c0.1,0,0.2,0,0.2-0.1C8.6,13.1,5.4,13.1,3.3,11.2
		L3.3,11.2z M14,21.8c0-4.3,3.4-7.7,7.7-7.7s7.7,3.5,7.7,7.7s-3.4,7.7-7.7,7.7C17.4,29.5,14,26,14,21.8z M32.5,40.7
		c0.1,0,0.2,0,0.2,0h7c0.1,0,0.2,0,0.2-0.1C37.9,42.6,34.6,42.6,32.5,40.7L32.5,40.7z M36.2,35.8c-0.8,0-1.4-0.6-1.4-1.4
		c0-0.8,0.6-1.4,1.4-1.4s1.4,0.6,1.4,1.4C37.6,35.2,37,35.8,36.2,35.8z M36.2,37.2c1.3,0,2.4,0.9,2.7,2.1h-5.4
		C33.9,38.1,35,37.2,36.2,37.2z M40.4,40.2c0-0.1,0-0.2,0.1-0.2c0-1.1-0.4-2.2-1.2-3c-0.3-0.3-0.6-0.5-0.9-0.7c1.1-1.1,1-2.9-0.1-4
		s-2.9-1-3.9,0.1c-1,1.1-1,2.8,0,3.9c-1.3,0.7-2.2,2.2-2.2,3.7c0,0.1,0,0.2,0,0.2c-2.1-2.3-1.9-5.8,0.4-7.9c2.3-2.1,5.8-1.9,7.9,0.4
		C42.3,34.8,42.3,38.1,40.4,40.2L40.4,40.2z"/>
</g>
</svg>
