<?xml version="1.0" encoding="utf-8"?>
<!-- Generator: Adobe Illustrator 21.0.0, SVG Export Plug-In . SVG Version: 6.00 Build 0)  -->
<svg version="1.1" id="Layer_1" xmlns="http://www.w3.org/2000/svg" xmlns:xlink="http://www.w3.org/1999/xlink" x="0px" y="0px"
	 viewBox="0 0 193 193" style="enable-background:new 0 0 193 193;" xml:space="preserve">
<style type="text/css">
	.st0{clip-path:url(#SVGID_2_);}
	.st1{fill:#F9D3B5;}
	.st2{fill:#FFE5CB;}
	.st3{fill:#00DCDF;}
	.st4{fill:#CFD0D1;}
	.st5{fill:#FF573E;}
	.st6{fill:#DDEEFB;}
	.st7{fill:#C5DCEB;}
	.st8{fill:#FFAD00;}
	.st9{fill:#FF8900;}
	.st10{fill:#0085BC;}
</style>
<g>
	<defs>
		<circle id="SVGID_1_" cx="96.5" cy="96.5" r="96.5"/>
	</defs>
	<use xlink:href="#SVGID_1_"  style="overflow:visible;fill:#E6E8E8;"/>
	<clipPath id="SVGID_2_">
		<use xlink:href="#SVGID_1_"  style="overflow:visible;"/>
	</clipPath>
	<g class="st0">
		<g>
			<path class="st1" d="M64.4,74.7V64.3H58c-3,0-5.5,2.5-5.5,5.5V74c0,3,2.5,5.5,5.5,5.5h6.4V74.7z"/>
			<path class="st1" d="M135,64.3h-6.4v10.4v4.8h6.4c3,0,5.5-2.5,5.5-5.5v-4.2C140.5,66.8,138,64.3,135,64.3z"/>
		</g>
		<path class="st2" d="M109.3,145.8l19.6-18.4l-7.8-1.4c-3.8-0.8-6.5-5.1-6.5-8.9V99.9H96.5l0,0H78.3V117c0,3.8-2.7,8.2-6.5,8.9
			l-7.8,1.4l19.6,18.4C90.9,152.6,102.1,152.6,109.3,145.8z"/>
		<path class="st1" d="M105.9,99.9v25.9c0,3.8,2.7,8.2,6.5,8.9l6.7,1.9l9.9-9.3l-7.8-1.4c-3.8-0.8-6.5-5.1-6.5-8.9V99.9L105.9,99.9
			L105.9,99.9z"/>
		<path class="st3" d="M119.2,125l-22.7,17l-22.7-17c-1.2-0.9-2.8-1.2-4.3-0.7l-38.2,11.5c-4.1,1.2-7.2,4.7-7.9,8.9L15,193.9
			c-0.6,3.4,2,6.5,5.5,6.5h152c3.4,0,6.1-3.1,5.5-6.5l-8.4-49.3c-0.7-4.2-3.8-7.7-7.9-8.9l-38.2-11.5
			C122,123.8,120.5,124.1,119.2,125z"/>
		<g>
			<path class="st4" d="M69.5,124.2l-6.6,2l14.5,20.3c1.1,1.6,3.2,2.2,5,1.4l14-6l0,0l-22.7-17C72.5,124.1,71,123.8,69.5,124.2z"/>
			<path class="st4" d="M110.5,147.9c1.8,0.8,3.9,0.2,5-1.4l14.5-20.3l0,0l-6.5-2c-1.5-0.4-3-0.2-4.3,0.7l-22.7,17l0,0l0,0
				L110.5,147.9z"/>
		</g>
		<g>
			<polygon class="st5" points="96.5,142 85.5,146.6 91.9,154.1 101.1,154.1 107.5,146.6 			"/>
			<polygon class="st5" points="101.1,154.1 96.5,154.1 91.9,154.1 83.5,200.4 109.5,200.4 			"/>
		</g>
		<path class="st2" d="M119.9,28.8c-5.5-4.7-13.2-4.4-23.4-4.5c-10.2,0.1-17.9-0.2-23.4,4.5c-7,6-10.8,15-10.8,24.2v26.8
			c0,9.2,11.6,33.7,34.2,33.7s34.2-24.5,34.2-33.7V53C130.7,43.8,126.9,34.8,119.9,28.8z"/>
		<path class="st1" d="M119.9,28.8c-2.2-1.9-4.7-3-7.6-3.6c0,0,0,0,0,0v54.6c0,7.9-8.5,26.9-25,32.3c2.8,0.9,5.9,1.5,9.2,1.5
			c22.6,0,34.2-24.5,34.2-33.7V53C130.7,43.8,126.9,34.8,119.9,28.8z"/>
		<path class="st6" d="M96.5,191.8c0,0-25.5-68.1-27-67.6l-38.2,11.5c-4.1,1.2-7.2,4.7-7.9,8.9L15,193.9c-0.6,3.4,2,6.5,5.5,6.5h152
			c3.4,0,6.1-3.1,5.5-6.5l-8.4-49.3c-0.7-4.2-3.8-7.7-7.9-8.9l-38.2-11.5C122,123.8,96.5,191.8,96.5,191.8z"/>
		<path class="st7" d="M178,193.9l-8.4-49.3c-0.7-4.2-3.8-7.7-7.9-8.9l-38.2-11.5c-0.4-0.1-2.6,4.8-5.5,12.1l27.7,8.4
			c2.1,0.6,3.7,2.4,4,4.6l8.7,51.2h14.1C176,200.4,178.6,197.3,178,193.9z"/>
		<path class="st8" d="M117,15.8H96.5H76c-10.6,0-19.1,8.6-19.1,19.1v31.4c0,0,5.3-0.1,8.7,3.2c0.7,0.7,1.9,0.2,1.9-0.8V43.1
			c0-4.7,3.8-8.5,8.5-8.5h7.7c2,0,4,0.7,5.5,2l0.8,0.6c1.9,1.5,4.3,2.4,6.7,2.4s4.8-0.8,6.7-2.4l0.8-0.6c1.6-1.3,3.5-2,5.5-2h7.7
			c4.7,0,8.5,3.8,8.5,8.5v25.7c0,1,1.2,1.5,1.9,0.8c3.4-3.4,8.7-3.2,8.7-3.2V34.9C136.2,24.3,127.6,15.8,117,15.8z"/>
		<path class="st9" d="M117,15.8H98.7c10.5,0,19,8.4,19.1,18.9c4.4,0.3,7.8,4,7.8,8.4v25.7c0,1,1.2,1.5,1.9,0.8
			c3.4-3.4,8.7-3.2,8.7-3.2V34.9C136.2,24.3,127.6,15.8,117,15.8z"/>
		<circle class="st10" cx="137.1" cy="161" r="11.6"/>
		<circle class="st6" cx="137.1" cy="161" r="5.1"/>
		<path d="M180.7,193.5l-8.4-49.3c-0.9-5.3-4.7-9.6-9.8-11.1l-22.7-6.8c-0.5-5.5-2.7-10.8-6.5-14.9c-3-3.3-6.8-5.7-11-7.1
			c0.7-0.8,1.4-1.6,2-2.4c5.4-6.9,8.3-14.4,9-19.6h1.8c4.6,0,8.3-3.7,8.3-8.3v-4.2c0-3-1.7-5.8-4.3-7.2V52.4c0-1.5-1.2-2.8-2.8-2.8
			c-1.5,0-2.8,1.2-2.8,2.8v11.4c-1.1,0.2-2.4,0.5-3.7,1.1c-0.1,0-0.3,0.1-0.4,0.2c-0.3,0.1-0.6,0.3-0.9,0.4V43.1
			c0-6.2-5-11.2-11.2-11.2h-7.7c-2.7,0-5.2,0.9-7.3,2.6l-0.8,0.6c-1.4,1.1-3.1,1.8-4.9,1.8c-1.8,0-3.5-0.6-4.9-1.8l-0.8-0.6
			c-2.1-1.7-4.6-2.6-7.3-2.6h-7.7c-6.2,0-11.2,5-11.2,11.2v22.5c-0.3-0.2-0.6-0.3-0.9-0.4c-0.1-0.1-0.3-0.1-0.4-0.2
			c-1.3-0.6-2.6-0.9-3.7-1.1V34.9c0-9,7.3-16.4,16.4-16.4H117c9,0,16.4,7.3,16.4,16.4v4.4c0,1.5,1.2,2.8,2.8,2.8
			c1.5,0,2.8-1.2,2.8-2.8v-4.4C139,22.8,129.1,13,117,13H76C63.9,13,54,22.8,54,34.9v27.7c-2.6,1.4-4.3,4.2-4.3,7.2V74
			c0,4.6,3.7,8.3,8.3,8.3h1.8c0.7,5.2,3.6,12.7,9,19.6c0.6,0.8,1.3,1.6,2,2.4c-9.7,3.1-16.7,11.7-17.6,22l-22.7,6.8
			c-5.2,1.6-8.9,5.8-9.8,11.1l-3.4,20c-0.3,1.5,0.8,3,2.3,3.2c1.5,0.3,3-0.8,3.2-2.3l3.4-20c0.5-3.2,2.8-5.8,5.9-6.7l21-6.3v5.5
			c-4.8,0.9-8.9,4.2-10.6,8.8c-0.4,1.2-0.7,2.5-0.8,3.8l-2,26c-0.2,2,0.5,3.9,1.9,5.4c1.3,1.4,3.2,2.3,5.2,2.3h3.5
			c1.5,0,2.8-1.2,2.8-2.8c0-1.5-1.2-2.8-2.8-2.8h-3.5c-0.4,0-0.8-0.2-1.1-0.5c-0.3-0.3-0.4-0.7-0.4-1.1l2-26
			c0.1-0.8,0.2-1.6,0.5-2.3c1.2-3.2,4.3-5.3,7.9-5.4l0.5,0c0,0,0,0,0.1,0c3.4,0,6.5,2,7.8,5c0.4,0.9,0.6,1.8,0.7,2.7l2,26
			c0,0.4-0.1,0.8-0.4,1.1c-0.3,0.3-0.7,0.5-1.1,0.5h-3.5c-1.5,0-2.8,1.2-2.8,2.8c0,1.5,1.2,2.8,2.8,2.8h3.5c2,0,3.9-0.8,5.2-2.3
			c1.3-1.4,2-3.4,1.9-5.4l-2-26c-0.1-1.5-0.5-3-1.1-4.4c-1.8-4.3-5.8-7.3-10.4-8.2v-7.2l9.6-2.9c0.9,1.8,2.6,5.8,6,14.3
			c3.4,8.6,7.7,19.7,11.8,30.4c0,0.1,0.1,0.2,0.1,0.3c2.7,7.2,5.4,14.2,7.7,20.3c0.4,1.1,1.4,1.8,2.6,1.8c1.2,0,2.2-0.7,2.6-1.8
			c2.3-6.1,4.9-13.1,7.7-20.3c0-0.1,0.1-0.2,0.1-0.3c4.1-10.7,8.4-21.8,11.8-30.4c3.4-8.6,5.2-12.5,6-14.4l9.6,2.9v16.5
			c-6.6,1.3-11.7,7.1-11.7,14.1c0,7.9,6.5,14.4,14.4,14.4s14.4-6.5,14.4-14.4c0-7-5-12.8-11.6-14.1v-14.8l21,6.3
			c3.1,0.9,5.4,3.5,5.9,6.7l8.4,49.3c0.1,0.8-0.1,1.6-0.6,2.2c-0.5,0.6-1.3,1-2.1,1h-152c-0.8,0-1.6-0.3-2.1-1
			c-0.5-0.6-0.8-1.4-0.6-2.2l2.8-16.3c0.3-1.5-0.8-3-2.3-3.2c-1.5-0.3-3,0.8-3.2,2.3l-2.8,16.3c-0.4,2.4,0.3,4.9,1.8,6.8
			c1.6,1.9,3.9,3,6.4,3h152c2.5,0,4.8-1.1,6.4-3C180.5,198.4,181.2,195.9,180.7,193.5z M133.4,69.5c1.5-0.4,2.7-0.4,2.7-0.4
			c0.5,0,0.9-0.1,1.4-0.3c0.1,0.3,0.2,0.6,0.2,1V74c0,1.5-1.2,2.7-2.7,2.7h-1.6L133.4,69.5L133.4,69.5z M59.6,76.7H58
			c-1.5,0-2.7-1.2-2.7-2.7v-4.2c0-0.3,0.1-0.7,0.2-1c0.4,0.2,0.9,0.3,1.4,0.3c0,0,1.2,0,2.7,0.4L59.6,76.7L59.6,76.7z M65.1,79.8
			v-7.3c0.8,0.3,1.8,0.2,2.6-0.1c1.5-0.6,2.4-2,2.4-3.6V43.1c0-3.1,2.5-5.7,5.7-5.7h7.7c1.4,0,2.7,0.5,3.8,1.3l0.8,0.6
			c2.4,1.9,5.4,3,8.5,3c3.1,0,6.1-1.1,8.5-3l0.8-0.6c1.1-0.9,2.4-1.3,3.8-1.3h7.7c3.1,0,5.7,2.5,5.7,5.7v25.7c0,1.6,0.9,3,2.4,3.6
			c0.5,0.2,1,0.3,1.5,0.3c0.4,0,0.8-0.1,1.1-0.2v7.3c0,4.1-2.8,12-8,18.6c-1.7,2.2-3.9,4.6-6.7,6.6c-0.1,0.1-0.2,0.1-0.2,0.2
			c-4.2,3.1-9.7,5.5-16.4,5.5s-12.2-2.4-16.4-5.5c-0.1-0.1-0.2-0.1-0.2-0.2c-2.7-2.1-5-4.4-6.7-6.6C67.9,91.8,65.1,83.9,65.1,79.8z
			 M114.8,124.8l-18.3,13.6l-18.3-13.6c1.8-2.3,2.8-5.3,2.8-7.9v-4.5c4.3,2.3,9.4,3.9,15.4,3.9s11.1-1.6,15.4-3.9v4.5
			C111.9,119.6,112.9,122.5,114.8,124.8z M73.6,121.7c-1.5-0.6-3.1-0.7-4.7-0.2c-0.1,0-0.1,0-0.2,0.1l-9.6,2.9
			c1.6-8,8.1-14.4,16.4-15.6v8.1C75.5,118.7,74.7,120.5,73.6,121.7z M81.2,144.1C81.2,144.1,81.2,144.1,81.2,144.1
			c-0.2-0.4-0.3-0.7-0.4-1.1c0-0.1,0-0.1-0.1-0.2c-0.1-0.3-0.3-0.7-0.4-1c0,0,0,0,0-0.1c-0.4-1-0.8-2-1.2-3c0-0.1-0.1-0.1-0.1-0.2
			c-0.1-0.3-0.2-0.5-0.3-0.8c0-0.1-0.1-0.2-0.1-0.3c-0.1-0.3-0.2-0.5-0.3-0.8c0-0.1-0.1-0.1-0.1-0.2c-0.2-0.5-0.4-0.9-0.5-1.3
			c0-0.1-0.1-0.2-0.1-0.4c-0.1-0.2-0.1-0.3-0.2-0.5c-0.1-0.2-0.1-0.4-0.2-0.5c0-0.1-0.1-0.1-0.1-0.2c0-0.1,0-0.1-0.1-0.2
			c-0.3-0.8-0.6-1.5-0.9-2.2c0,0,0,0,0,0c-0.2-0.4-0.3-0.7-0.5-1.1c-0.1-0.2-0.1-0.4-0.2-0.5L91,141.3l-6.6,2.8c0,0,0,0,0,0
			l-2.7,1.2C81.5,144.9,81.3,144.5,81.2,144.1z M87.8,161.2c-0.6-1.4-1.1-2.9-1.7-4.3c-0.9-2.2-1.7-4.4-2.5-6.4l1-0.4l4.2,4.9
			L87.8,161.2z M96.6,183.8c-0.1-0.2-0.2-0.3-0.3-0.5c-1.3-3.3-2.9-7.5-4.6-12.2l2.6-14.2h4.5l2.6,14.2
			C99.5,176,97.8,180.4,96.6,183.8z M99.8,151.3h-6.6l-3.1-3.6l6.4-2.7l6.4,2.7L99.8,151.3z M106.9,156.9c-0.6,1.4-1.1,2.9-1.7,4.3
			l-1.1-6.2l4.2-4.9l1,0.4C108.6,152.5,107.7,154.6,106.9,156.9z M117.5,130.1c-0.1,0.3-0.3,0.7-0.4,1c0,0,0,0.1-0.1,0.1
			c-0.1,0.3-0.3,0.7-0.4,1.1c0,0,0,0,0,0.1c-0.1,0.3-0.3,0.6-0.4,1c0,0.1,0,0.1-0.1,0.2c0,0.1-0.1,0.2-0.1,0.2
			c-0.1,0.1-0.1,0.3-0.2,0.5c-0.1,0.2-0.2,0.4-0.2,0.6c0,0.1-0.1,0.1-0.1,0.2c-0.2,0.5-0.4,1-0.6,1.5c0,0.1-0.1,0.2-0.1,0.2
			c-0.1,0.2-0.2,0.5-0.3,0.8c0,0.1-0.1,0.2-0.1,0.3c-0.1,0.3-0.2,0.5-0.3,0.8c0,0.1-0.1,0.2-0.1,0.2c-0.4,0.9-0.8,1.9-1.2,2.9
			c0,0,0,0.1,0,0.1c-0.1,0.3-0.3,0.7-0.4,1c0,0.1-0.1,0.1-0.1,0.2c-0.1,0.3-0.3,0.7-0.4,1.1c0,0,0,0,0,0c-0.2,0.4-0.3,0.8-0.5,1.2
			l-2.7-1.2c0,0,0,0,0,0l-6.6-2.8l15.7-11.7C117.7,129.7,117.6,129.9,117.5,130.1z M124.3,121.6
			C124.3,121.6,124.3,121.6,124.3,121.6C124.3,121.6,124.3,121.6,124.3,121.6c-1.6-0.5-3.3-0.4-4.9,0.2c-1.1-1.2-1.9-3-1.9-4.8v-8.1
			c8.3,1.2,14.8,7.5,16.4,15.6L124.3,121.6z M145.9,161c0,4.9-4,8.8-8.8,8.8s-8.8-4-8.8-8.8c0-4.9,4-8.8,8.8-8.8
			S145.9,156.1,145.9,161z"/>
	</g>
</g>
</svg>
