<?xml version="1.0" encoding="utf-8"?>
<!-- Generator: Adobe Illustrator 21.0.0, SVG Export Plug-In . SVG Version: 6.00 Build 0)  -->
<svg version="1.1" id="Layer_1" xmlns="http://www.w3.org/2000/svg" xmlns:xlink="http://www.w3.org/1999/xlink" x="0px" y="0px"
	 viewBox="0 0 512 512" style="enable-background:new 0 0 512 512;" xml:space="preserve">
<path d="M480,124h-56c-6.6,0-12,5.4-12,12s5.4,12,12,12h56c2.2,0,4,1.8,4,4v100.5c0,1.7-1.1,3.3-2.7,3.8l-203.8,67.9
	c-14,4.6-29,4.6-43,0L30.7,256.3c-1.6-0.5-2.7-2.1-2.7-3.8V152c0-2.2,1.8-4,4-4h56c6.6,0,12-5.4,12-12s-5.4-12-12-12H32
	c-15.5,0-28,12.5-28,28v328c0,15.5,12.5,28,28,28h448c15.5,0,28-12.5,28-28V152C508,136.5,495.5,124,480,124L480,124z M480,484H32
	c-2.2,0-4-1.8-4-4V280.7l198.9,66.3c18.9,6.3,39.3,6.3,58.2,0L484,280.7V480C484,482.2,482.2,484,480,484z"/>
<path d="M72,404h56c6.6,0,12-5.4,12-12s-5.4-12-12-12H72c-6.6,0-12,5.4-12,12S65.4,404,72,404z"/>
<path d="M168,436H72c-6.6,0-12,5.4-12,12s5.4,12,12,12h96c6.6,0,12-5.4,12-12S174.6,436,168,436z"/>
<path d="M345.8,63.6c-6.3-15.9-24.2-23.7-40.1-17.4L183.6,94.3c-9.3,3.7-16.2,11.6-18.7,21.3c-4.1,16.6,5.9,33.3,22.5,37.5l37.2,9.3
	c2.5,0.6,4.4,2.5,5,5l9.3,37.2c2.4,9.7,9.4,17.6,18.7,21.3c15.9,6.3,33.8-1.6,40.1-17.4l48.1-122.1C348.7,79,348.7,70.9,345.8,63.6z
	 M323.5,77.5l-48.1,122.1c-0.8,2.1-2.6,3.7-4.8,4.2c-3.7,0.9-7.4-1.3-8.4-5l-9.3-37.2c-2.8-11.1-11.4-19.7-22.5-22.5l-37.2-9.3
	c-2.2-0.5-4-2.1-4.8-4.2c-1.4-3.6,0.4-7.6,3.9-8.9l122.1-48.1c1.6-0.6,3.4-0.6,5.1,0C323.1,69.9,324.9,73.9,323.5,77.5z"/>
</svg>
