<?xml version="1.0" encoding="utf-8"?>
<!-- Generator: Adobe Illustrator 21.0.0, SVG Export Plug-In . SVG Version: 6.00 Build 0)  -->
<svg version="1.1" id="Capa_1" xmlns="http://www.w3.org/2000/svg" xmlns:xlink="http://www.w3.org/1999/xlink" x="0px" y="0px"
	 viewBox="0 0 513.6 513.6" style="enable-background:new 0 0 513.6 513.6;" xml:space="preserve">
<g>
	<g>
		<g>
			<path d="M389.3,513.6c-22.2,0-47.9-5.8-76.2-17.4c-55.7-22.9-117.4-66.4-173.6-122.6c-55.8-55.8-99-117.4-121.8-173.7
				c-24.3-60-22.9-108.6,3.8-136.7l0.3-0.3l45.6-45.6C78.7,6.1,93.9,0,110.3,0c16.1,0,31.6,5.9,43.8,16.6l0.8,0.7l67.2,67.2
				c15.5,15.5,21.6,37.4,16.3,58.5c-5.1,20.4-19.8,36.2-39.5,42.3c-6.7,2.3-12.6,7.2-16.2,13.7c-3.5,6.3-4.4,13-2.4,19l0.2,0.7
				l0.2,0.7c10.2,42.9,69.3,102,113,113c14.3,3.1,29.5-5,34-18.2c6.1-19.7,21.9-34.4,42.3-39.5c21.2-5.3,43.1,0.8,58.5,16.3
				l67.2,67.2v0v0c11.1,11.1,17.3,26.3,17.3,42.8c0,16.1-5.9,31.6-16.6,43.8l-0.7,0.8l-45.6,45.6
				C435.3,506.1,414.6,513.6,389.3,513.6z M44.6,85.3c-17.2,18.3-16.2,55.7,2.7,102.7c21.2,52.4,61.9,110.3,114.7,163.1
				c53.3,53.3,111.2,94.4,163.2,115.7c47,19.3,84.4,20,102.4,2l45.2-45.2c11-12.9,11.2-31.9,0.4-42.7v0l-67.2-67.2
				c-7.5-7.5-18.1-10.5-28.3-7.9c-9.7,2.4-16.8,9-19.6,18.1l-0.1,0.4c-8.2,24.6-32.3,40.8-58.1,40.8c-4.4,0-8.9-0.5-13.3-1.5
				l-0.4-0.1c-25.9-6.5-56.3-25.5-83.3-52.1c-27.3-26.9-46.6-57.5-53.1-83.8c-4.6-14.4-2.8-30,5.1-44c7.5-13.3,19.9-23.6,34.1-28.3
				l0.4-0.1c9.1-2.8,15.7-10,18.1-19.6c2.5-10.2-0.4-20.8-7.9-28.3l-66.8-66.8c-12.9-11-31.9-11.2-42.7-0.4L44.6,85.3z"/>
		</g>
	</g>
</g>
</svg>
