<svg id="Capa_1" enable-background="new 0 0 511.99 511.99" height="512" viewBox="0 0 511.99 511.99" width="512" xmlns="http://www.w3.org/2000/svg"><g><path d="m390.52 436.248c-8.183-4.836-19.456-9.069-33.508-12.583-10.143-2.535-21.506-4.642-33.733-6.291 10.551-10.297 21.802-21.879 33.093-34.493 61.727-68.958 93.024-132.708 93.024-189.48 0-106.642-86.759-193.401-193.401-193.401s-193.401 86.759-193.401 193.4c0 56.772 31.298 120.522 93.024 189.48 11.293 12.616 22.545 24.199 33.097 34.497-12.23 1.646-23.594 3.751-33.737 6.287-14.052 3.514-25.325 7.747-33.508 12.583-15.034 8.887-18.189 19.215-18.189 26.314s3.156 17.428 18.189 26.313c8.183 4.837 19.456 9.07 33.508 12.583 27.166 6.791 63.041 10.531 101.017 10.531s73.851-3.74 101.017-10.531c14.052-3.513 25.325-7.746 33.508-12.583 15.033-8.886 18.189-19.214 18.189-26.313s-3.155-17.426-18.189-26.313zm-297.926-242.848c0-90.1 73.302-163.4 163.401-163.4s163.401 73.301 163.401 163.4c0 102.741-127.832 214.783-163.401 243.962-35.571-29.18-163.401-141.22-163.401-243.962zm249.277 280.764c-23.82 5.047-54.318 7.826-85.876 7.826s-62.056-2.779-85.876-7.826c-19.148-4.057-29.448-8.613-34.23-11.602 4.782-2.989 15.082-7.546 34.23-11.603 14.028-2.972 30.376-5.153 47.891-6.445 16.661 14.646 27.991 23.294 28.915 23.995l9.07 6.886 9.07-6.886c.924-.701 12.255-9.35 28.918-23.998 17.514 1.293 33.86 3.476 47.888 6.448 19.148 4.057 29.448 8.613 34.23 11.603-4.782 2.989-15.081 7.545-34.23 11.602z"/><path d="m374.281 193.798c0-65.223-53.063-118.285-118.286-118.285s-118.286 53.063-118.286 118.285c0 65.224 53.063 118.286 118.286 118.286s118.286-53.063 118.286-118.286zm-206.572 0c0-48.681 39.605-88.285 88.286-88.285s88.286 39.604 88.286 88.285-39.605 88.286-88.286 88.286-88.286-39.605-88.286-88.286z"/><path d="m270.995 243.67v-34.872h34.871v-30h-34.871v-34.871h-30v34.871h-34.871v30h34.871v34.872z"/></g></svg>