<?xml version="1.0" encoding="utf-8"?>
<!-- Generator: Adobe Illustrator 21.0.0, SVG Export Plug-In . SVG Version: 6.00 Build 0)  -->
<svg version="1.1" id="Layer_1" xmlns="http://www.w3.org/2000/svg" xmlns:xlink="http://www.w3.org/1999/xlink" x="0px" y="0px"
	 viewBox="0 0 193 193" style="enable-background:new 0 0 193 193;" xml:space="preserve">
<style type="text/css">
	.st0{fill:#FFFFFF;}
	.st1{fill:#C3D1DC;}
	.st2{fill:#FDCB6A;}
	.st3{fill:#FD7B95;}
	.st4{fill:#DDEBFD;}
</style>
<symbol  id="New_Symbol" viewBox="-256 -256 512 512">
	<g id="XMLID_18_">
		<path id="XMLID_34_" class="st0" d="M-150.1,198h300.2v-444h-300.2V198z"/>
		<path id="XMLID_33_" class="st1" d="M-108,246h216v-48h-216V246z"/>
		<path id="XMLID_32_" class="st2" d="M-246,34h95.9v-280H-246V34z"/>
		<path id="XMLID_31_" class="st2" d="M246-246h-95.9V34H246V-246z"/>
		<path id="XMLID_30_" class="st3" d="M52,120H22v30h-44v-30h-30V76h30V46h44v30h30V120z"/>
		<path id="XMLID_29_" class="st4" d="M-94-102H94v-144H-94V-102z"/>
		<g id="XMLID_19_">
			<path id="XMLID_28_" d="M246,44h-85.9v154c0,5.5-4.5,10-10,10H118v38c0,5.5-4.5,10-10,10h-216c-5.5,0-10-4.5-10-10v-38h-32.1
				c-5.5,0-10-4.5-10-10V44H-246c-5.5,0-10-4.5-10-10v-280c0-5.5,4.5-10,10-10h492c5.5,0,10,4.5,10,10V34C256,39.5,251.5,44,246,44z
				 M-236,24h75.9v-260H-236V24z M-140.1,188H-45c5.5,0,10,4.5,10,10s-4.5,10-10,10h-53v28H98v-28H45c-5.5,0-10-4.5-10-10
				s4.5-10,10-10h95.1v-424H104v134c0,5.5-4.5,10-10,10H-94c-5.5,0-10-4.5-10-10v-134h-36.1V188z M-84-112h74v-124h-74V-112z
				 M10-236v124h74v-124H10z M236-236h-75.9V24H236V-236z"/>
			<path id="XMLID_27_" d="M-94-64h30.7c5.5,0,10,4.5,10,10s-4.5,10-10,10H-94c-5.5,0-10-4.5-10-10S-99.5-64-94-64z"/>
			<path id="XMLID_26_" d="M15.3-44h-30.7c-5.5,0-10-4.5-10-10s4.5-10,10-10h30.7c5.5,0,10,4.5,10,10S20.9-44,15.3-44z"/>
			<path id="XMLID_25_" d="M94-44H63.3c-5.5,0-10-4.5-10-10s4.5-10,10-10H94c5.5,0,10,4.5,10,10S99.5-44,94-44z"/>
			<path id="XMLID_24_" d="M-94-12h30.7c5.5,0,10,4.5,10,10s-4.5,10-10,10H-94c-5.5,0-10-4.5-10-10C-104-7.6-99.5-12-94-12z"/>
			<path id="XMLID_23_" d="M15.3,8h-30.7c-5.5,0-10-4.5-10-10s4.5-10,10-10h30.7c5.5,0,10,4.5,10,10S20.9,8,15.3,8L15.3,8z"/>
			<path id="XMLID_22_" d="M53.3-2c0-5.5,4.5-10,10-10H94c5.5,0,10,4.5,10,10S99.5,8,94,8H63.3C57.8,8,53.3,3.5,53.3-2z"/>
			<path id="XMLID_21_" d="M-52,66h20V46c0-5.5,4.5-10,10-10h44c5.5,0,10,4.5,10,10v20h20c5.5,0,10,4.5,10,10v44c0,5.5-4.5,10-10,10
				H32v20c0,5.5-4.5,10-10,10h-44c-5.5,0-10-4.5-10-10v-20h-20c-5.5,0-10-4.5-10-10V76C-62,70.4-57.5,66-52,66z M-42,110h20
				c5.5,0,10,4.5,10,10v20h24v-20c0-5.5,4.5-10,10-10h20V86H22c-5.5,0-10-4.5-10-10V56h-24v20c0,5.5-4.5,10-10,10h-20V110z"/>
			<path id="XMLID_20_" d="M0,188c2.6,0,5.2,1.1,7.1,2.9c1.9,1.9,2.9,4.4,2.9,7.1c0,2.6-1.1,5.2-2.9,7.1C5.2,206.9,2.6,208,0,208
				s-5.2-1.1-7.1-2.9s-2.9-4.4-2.9-7.1c0-2.6,1.1-5.2,2.9-7.1S-2.6,188,0,188z"/>
		</g>
	</g>
</symbol>
<g>
	<defs>
		<circle id="SVGID_1_" cx="96.5" cy="96.5" r="96.5"/>
	</defs>
	<use xlink:href="#SVGID_1_"  style="overflow:visible;fill:#E6E8E8;"/>
	<clipPath id="SVGID_2_">
		<use xlink:href="#SVGID_1_"  style="overflow:visible;"/>
	</clipPath>
	<g style="clip-path:url(#SVGID_2_);">
		
			<use xlink:href="#New_Symbol"  width="512" height="512" x="-256" y="-256" transform="matrix(0.3058 0 0 -0.3282 98.7157 122)" style="overflow:visible;"/>
	</g>
</g>
</svg>
